<?xml version="1.0" standalone="no"?>
<!DOCTYPE svg PUBLIC "-//W3C//DTD SVG 1.1//EN" "http://www.w3.org/Graphics/SVG/1.1/DTD/svg11.dtd" >
<svg xmlns="http://www.w3.org/2000/svg">
<metadata>Generated by IcoMoon</metadata>
<defs>
<font id="icomoon" horiz-adv-x="1024">
<font-face units-per-em="1024" ascent="960" descent="-64" />
<missing-glyph horiz-adv-x="1024" />
<glyph unicode="&#x20;" horiz-adv-x="512" d="" />
<glyph unicode="&#xe900;" d="M325.818 727.273h465.455c51.2 0 93.091-41.891 93.091-93.091v-465.455c0-51.2-41.891-93.091-93.091-93.091h-465.455c-51.2 0-93.091 41.891-93.091 93.091v465.455c0 51.2 41.891 93.091 93.091 93.091z" />
<glyph unicode="&#xe901;" d="M768 75.636h-418.909c-65.164 0-116.364 51.2-116.364 116.364v418.909c0 65.164 51.2 116.364 116.364 116.364h418.909c65.164 0 116.364-51.2 116.364-116.364v-418.909c0-65.164-51.2-116.364-116.364-116.364zM349.091 680.727c-37.236 0-69.818-32.582-69.818-69.818v-418.909c0-37.236 32.582-69.818 69.818-69.818h418.909c37.236 0 69.818 32.582 69.818 69.818v418.909c0 37.236-32.582 69.818-69.818 69.818h-418.909z" />
<glyph unicode="&#xe902;" d="M465.455 587.636h465.455c51.2 0 93.091-41.891 93.091-93.091v-465.455c0-51.2-41.891-93.091-93.091-93.091h-465.455c-51.2 0-93.091 41.891-93.091 93.091v465.455c0 51.2 41.891 93.091 93.091 93.091z" />
<glyph unicode="&#xe903;" d="M907.636-64h-418.909c-65.164 0-116.364 51.2-116.364 116.364v418.909c0 65.164 51.2 116.364 116.364 116.364h418.909c65.164 0 116.364-51.2 116.364-116.364v-418.909c0-65.164-51.2-116.364-116.364-116.364zM488.727 541.091c-37.236 0-69.818-32.582-69.818-69.818v-418.909c0-37.236 32.582-69.818 69.818-69.818h418.909c37.236 0 69.818 32.582 69.818 69.818v418.909c0 37.236-32.582 69.818-69.818 69.818h-418.909z" />
<glyph unicode="&#xe904;" d="M93.091 960h465.455c51.2 0 93.091-41.891 93.091-93.091v-465.455c0-51.2-41.891-93.091-93.091-93.091h-465.455c-51.2 0-93.091 41.891-93.091 93.091v465.455c0 51.2 41.891 93.091 93.091 93.091z" />
<glyph unicode="&#xe905;" d="M535.273 308.364h-418.909c-65.164 0-116.364 51.2-116.364 116.364v418.909c0 65.164 51.2 116.364 116.364 116.364h418.909c65.164 0 116.364-51.2 116.364-116.364v-418.909c0-65.164-51.2-116.364-116.364-116.364zM116.364 913.455c-37.236 0-69.818-32.582-69.818-69.818v-418.909c0-37.236 32.582-69.818 69.818-69.818h418.909c37.236 0 69.818 32.582 69.818 69.818v418.909c0 37.236-32.582 69.818-69.818 69.818h-418.909z" />
<glyph unicode="&#xe906;" d="M93.091 960h465.455c51.2 0 93.091-41.891 93.091-93.091v-465.455c0-51.2-41.891-93.091-93.091-93.091h-465.455c-51.2 0-93.091 41.891-93.091 93.091v465.455c0 51.2 41.891 93.091 93.091 93.091z" />
<glyph unicode="&#xe907;" d="M535.273 308.364h-418.909c-65.164 0-116.364 51.2-116.364 116.364v418.909c0 65.164 51.2 116.364 116.364 116.364h418.909c65.164 0 116.364-51.2 116.364-116.364v-418.909c0-65.164-51.2-116.364-116.364-116.364zM116.364 913.455c-37.236 0-69.818-32.582-69.818-69.818v-418.909c0-37.236 32.582-69.818 69.818-69.818h418.909c37.236 0 69.818 32.582 69.818 69.818v418.909c0 37.236-32.582 69.818-69.818 69.818h-418.909z" />
<glyph unicode="&#xe908;" d="M325.818 727.273h465.455c51.2 0 93.091-41.891 93.091-93.091v-465.455c0-51.2-41.891-93.091-93.091-93.091h-465.455c-51.2 0-93.091 41.891-93.091 93.091v465.455c0 51.2 41.891 93.091 93.091 93.091z" />
<glyph unicode="&#xe909;" d="M768 75.636h-418.909c-65.164 0-116.364 51.2-116.364 116.364v418.909c0 65.164 51.2 116.364 116.364 116.364h418.909c65.164 0 116.364-51.2 116.364-116.364v-418.909c0-65.164-51.2-116.364-116.364-116.364zM349.091 680.727c-37.236 0-69.818-32.582-69.818-69.818v-418.909c0-37.236 32.582-69.818 69.818-69.818h418.909c37.236 0 69.818 32.582 69.818 69.818v418.909c0 37.236-32.582 69.818-69.818 69.818h-418.909z" />
<glyph unicode="&#xe90a;" d="M465.455 587.636h465.455c51.2 0 93.091-41.891 93.091-93.091v-465.455c0-51.2-41.891-93.091-93.091-93.091h-465.455c-51.2 0-93.091 41.891-93.091 93.091v465.455c0 51.2 41.891 93.091 93.091 93.091z" />
<glyph unicode="&#xe90b;" d="M907.636-64h-418.909c-65.164 0-116.364 51.2-116.364 116.364v418.909c0 65.164 51.2 116.364 116.364 116.364h418.909c65.164 0 116.364-51.2 116.364-116.364v-418.909c0-65.164-51.2-116.364-116.364-116.364zM488.727 541.091c-37.236 0-69.818-32.582-69.818-69.818v-418.909c0-37.236 32.582-69.818 69.818-69.818h418.909c37.236 0 69.818 32.582 69.818 69.818v418.909c0 37.236-32.582 69.818-69.818 69.818h-418.909z" />
<glyph unicode="&#xe90c;" d="M409.6 652.8h512c56.32 0 102.4-46.080 102.4-102.4v-512c0-56.32-46.080-102.4-102.4-102.4h-512c-56.32 0-102.4 46.080-102.4 102.4v512c0 56.32 46.080 102.4 102.4 102.4z" />
<glyph unicode="&#xe90d;" d="M896-64h-460.8c-71.68 0-128 56.32-128 128v460.8c0 71.68 56.32 128 128 128h460.8c71.68 0 128-56.32 128-128v-460.8c0-71.68-56.32-128-128-128zM435.2 601.6c-40.96 0-76.8-35.84-76.8-76.8v-460.8c0-40.96 35.84-76.8 76.8-76.8h460.8c40.96 0 76.8 35.84 76.8 76.8v460.8c0 40.96-35.84 76.8-76.8 76.8h-460.8z" />
<glyph unicode="&#xe90e;" d="M102.4 960h512c56.32 0 102.4-46.080 102.4-102.4v-512c0-56.32-46.080-102.4-102.4-102.4h-512c-56.32 0-102.4 46.080-102.4 102.4v512c0 56.32 46.080 102.4 102.4 102.4z" />
<glyph unicode="&#xe90f;" d="M588.8 243.2h-460.8c-71.68 0-128 56.32-128 128v460.8c0 71.68 56.32 128 128 128h460.8c71.68 0 128-56.32 128-128v-460.8c0-71.68-56.32-128-128-128zM128 908.8c-40.96 0-76.8-35.84-76.8-76.8v-460.8c0-40.96 35.84-76.8 76.8-76.8h460.8c40.96 0 76.8 35.84 76.8 76.8v460.8c0 40.96-35.84 76.8-76.8 76.8h-460.8z" />
<glyph unicode="&#xe910;" d="M102.4 960h512c56.32 0 102.4-46.080 102.4-102.4v-512c0-56.32-46.080-102.4-102.4-102.4h-512c-56.32 0-102.4 46.080-102.4 102.4v512c0 56.32 46.080 102.4 102.4 102.4z" />
<glyph unicode="&#xe911;" d="M588.8 243.2h-460.8c-71.68 0-128 56.32-128 128v460.8c0 71.68 56.32 128 128 128h460.8c71.68 0 128-56.32 128-128v-460.8c0-71.68-56.32-128-128-128zM128 908.8c-40.96 0-76.8-35.84-76.8-76.8v-460.8c0-40.96 35.84-76.8 76.8-76.8h460.8c40.96 0 76.8 35.84 76.8 76.8v460.8c0 40.96-35.84 76.8-76.8 76.8h-460.8z" />
<glyph unicode="&#xe912;" d="M409.6 652.8h512c56.32 0 102.4-46.080 102.4-102.4v-512c0-56.32-46.080-102.4-102.4-102.4h-512c-56.32 0-102.4 46.080-102.4 102.4v512c0 56.32 46.080 102.4 102.4 102.4z" />
<glyph unicode="&#xe913;" d="M870.4-38.4h-460.8c-71.68 0-128 56.32-128 128v460.8c0 71.68 56.32 128 128 128h460.8c71.68 0 128-56.32 128-128v-460.8c0-71.68-56.32-128-128-128zM409.6 627.2c-40.96 0-76.8-35.84-76.8-76.8v-460.8c0-40.96 35.84-76.8 76.8-76.8h460.8c40.96 0 76.8 35.84 76.8 76.8v460.8c0 40.96-35.84 76.8-76.8 76.8h-460.8z" />
</font>
</defs>
</svg>
